<svg width="32" height="32" viewBox="0 0 32 32" fill="none" xmlns="http://www.w3.org/2000/svg">
<g clip-path="url(#clip0_262_120)">
<path d="M2.1624 13.0328V16.0359H22.4373V17.0214H2.1624V20.3801H1V12H8.68414V13.0326L2.1624 13.0328Z" fill="black"/>
<path d="M29.415 20.3801L26.4685 17.0209H22.2645V20.3801H21.1377V12H26.9493C27.6891 12 27.8998 12.0356 28.2697 12.1307C29.4409 12.4274 30.0488 13.3058 30.0488 14.4572C30.0488 14.9082 30.0082 16.0834 28.7013 16.6056C28.4794 16.6888 28.2754 16.7598 27.7824 16.8311L31 20.3801H29.415ZM28.6631 13.6855C28.2932 13.0564 27.7139 12.9972 27.0358 12.9972H22.2523V16.0359H26.5548C27.2575 16.0359 28.0836 16.0121 28.5643 15.4186C28.6877 15.276 28.8848 14.9911 28.8848 14.5045C28.8848 14.3501 28.8728 14.0298 28.6631 13.6855Z" fill="black"/>
</g>
<defs>
<clipPath id="clip0_262_120">
<rect width="30" height="8.38012" fill="white" transform="translate(1 12)"/>
</clipPath>
</defs>
</svg>
